M48
; DRILL file {KiCad 7.0.10} date Wed Mar 13 20:43:01 2024
; FORMAT={-:-/ absolute / inch / decimal}
; #@! TF.CreationDate,2024-03-13T20:43:01-04:00
; #@! TF.GenerationSoftware,Kicad,Pcbnew,7.0.10
; #@! TF.FileFunction,Plated,1,2,PTH
FMAT,2
INCH
; #@! TA.AperFunction,Plated,PTH,ComponentDrill
T1C0.0118
; #@! TA.AperFunction,Plated,PTH,ViaDrill
T2C0.0157
%
G90
G05
T1
X4.7Y-3.825
T2
X4.92Y-4.11
X5.1Y-3.37
X5.1Y-3.5
X5.1Y-3.63
X5.1Y-3.76
X5.1Y-3.89
X5.1Y-4.02
X5.22Y-3.37
X5.22Y-3.5
X5.22Y-3.63
X5.22Y-3.76
X5.22Y-3.89
X5.22Y-4.02
X5.35Y-3.37
X5.35Y-3.5
X5.35Y-3.63
X5.35Y-3.76
X5.35Y-3.89
X5.35Y-4.02
X5.48Y-3.37
X5.48Y-3.5
X5.48Y-3.63
X5.48Y-3.76
X5.48Y-3.89
X5.48Y-4.02
X5.61Y-3.37
X5.61Y-3.5
X5.61Y-3.63
X5.61Y-3.76
X5.61Y-3.89
X5.61Y-4.02
X5.74Y-3.37
X5.74Y-3.5
X5.74Y-3.63
X5.74Y-3.76
X5.74Y-3.89
X5.74Y-4.02
X5.87Y-3.37
X5.87Y-3.5
X5.87Y-3.63
X5.87Y-3.76
X5.87Y-3.8924
X5.87Y-4.02
X5.9067Y-3.994
X5.99Y-4.08
X6.0828Y-4.068
X6.0998Y-4.1118
X6.1Y-3.02
X6.1052Y-3.2814
X6.1396Y-3.095
X6.2112Y-3.8995
X6.457Y-4.2689
M30
