%TF.GenerationSoftware,KiCad,Pcbnew,7.0.10*%
%TF.CreationDate,2024-03-13T20:43:01-04:00*%
%TF.ProjectId,Business Card,42757369-6e65-4737-9320-436172642e6b,rev?*%
%TF.SameCoordinates,Original*%
%TF.FileFunction,Profile,NP*%
%FSLAX46Y46*%
G04 Gerber Fmt 4.6, Leading zero omitted, Abs format (unit mm)*
G04 Created by KiCad (PCBNEW 7.0.10) date 2024-03-13 20:43:01*
%MOMM*%
%LPD*%
G01*
G04 APERTURE LIST*
%TA.AperFunction,Profile*%
%ADD10C,0.100000*%
%TD*%
G04 APERTURE END LIST*
D10*
X180848000Y-75946000D02*
X162814000Y-75946000D01*
X162814000Y-93218000D02*
X162814000Y-89154000D01*
X156718000Y-95504000D02*
X180848000Y-95504000D01*
X162814000Y-89154000D02*
X177800000Y-89154000D01*
X156718000Y-74422000D02*
X180848000Y-74422000D01*
X159004000Y-82296000D02*
X173990000Y-82296000D01*
X173990000Y-82296000D02*
X173990000Y-86360000D01*
X173990000Y-86360000D02*
X159258000Y-86360000D01*
X162814000Y-80010000D02*
X162814000Y-75946000D01*
X180848000Y-95504000D02*
X178562000Y-93218000D01*
X156718000Y-88900000D02*
X156718000Y-95504000D01*
X96520000Y-71120000D02*
X185420000Y-71120000D01*
X185420000Y-121920000D01*
X96520000Y-121920000D01*
X96520000Y-71120000D01*
X159258000Y-86360000D02*
X156718000Y-88900000D01*
X156718000Y-74422000D02*
X156718000Y-80010000D01*
X178562000Y-93218000D02*
X162814000Y-93218000D01*
X180848000Y-74422000D02*
X180848000Y-75946000D01*
X177800000Y-89154000D02*
X178562000Y-89154000D01*
X180848000Y-82296000D02*
X178562000Y-80010000D01*
X178562000Y-89154000D02*
X180848000Y-86868000D01*
X156718000Y-80010000D02*
X159004000Y-82296000D01*
X180848000Y-82296000D02*
X180848000Y-86868000D01*
X178562000Y-80010000D02*
X162814000Y-80010000D01*
M02*
