%TF.GenerationSoftware,KiCad,Pcbnew,7.0.10*%
%TF.CreationDate,2024-02-28T16:33:31-05:00*%
%TF.ProjectId,Business Card,42757369-6e65-4737-9320-436172642e6b,rev?*%
%TF.SameCoordinates,Original*%
%TF.FileFunction,Paste,Top*%
%TF.FilePolarity,Positive*%
%FSLAX46Y46*%
G04 Gerber Fmt 4.6, Leading zero omitted, Abs format (unit mm)*
G04 Created by KiCad (PCBNEW 7.0.10) date 2024-02-28 16:33:31*
%MOMM*%
%LPD*%
G01*
G04 APERTURE LIST*
G04 Aperture macros list*
%AMRoundRect*
0 Rectangle with rounded corners*
0 $1 Rounding radius*
0 $2 $3 $4 $5 $6 $7 $8 $9 X,Y pos of 4 corners*
0 Add a 4 corners polygon primitive as box body*
4,1,4,$2,$3,$4,$5,$6,$7,$8,$9,$2,$3,0*
0 Add four circle primitives for the rounded corners*
1,1,$1+$1,$2,$3*
1,1,$1+$1,$4,$5*
1,1,$1+$1,$6,$7*
1,1,$1+$1,$8,$9*
0 Add four rect primitives between the rounded corners*
20,1,$1+$1,$2,$3,$4,$5,0*
20,1,$1+$1,$4,$5,$6,$7,0*
20,1,$1+$1,$6,$7,$8,$9,0*
20,1,$1+$1,$8,$9,$2,$3,0*%
%AMOutline5P*
0 Free polygon, 5 corners , with rotation*
0 The origin of the aperture is its center*
0 number of corners: always 5*
0 $1 to $10 corner X, Y*
0 $11 Rotation angle, in degrees counterclockwise*
0 create outline with 5 corners*
4,1,5,$1,$2,$3,$4,$5,$6,$7,$8,$9,$10,$1,$2,$11*%
%AMOutline6P*
0 Free polygon, 6 corners , with rotation*
0 The origin of the aperture is its center*
0 number of corners: always 6*
0 $1 to $12 corner X, Y*
0 $13 Rotation angle, in degrees counterclockwise*
0 create outline with 6 corners*
4,1,6,$1,$2,$3,$4,$5,$6,$7,$8,$9,$10,$11,$12,$1,$2,$13*%
%AMOutline7P*
0 Free polygon, 7 corners , with rotation*
0 The origin of the aperture is its center*
0 number of corners: always 7*
0 $1 to $14 corner X, Y*
0 $15 Rotation angle, in degrees counterclockwise*
0 create outline with 7 corners*
4,1,7,$1,$2,$3,$4,$5,$6,$7,$8,$9,$10,$11,$12,$13,$14,$1,$2,$15*%
%AMOutline8P*
0 Free polygon, 8 corners , with rotation*
0 The origin of the aperture is its center*
0 number of corners: always 8*
0 $1 to $16 corner X, Y*
0 $17 Rotation angle, in degrees counterclockwise*
0 create outline with 8 corners*
4,1,8,$1,$2,$3,$4,$5,$6,$7,$8,$9,$10,$11,$12,$13,$14,$15,$16,$1,$2,$17*%
%AMFreePoly0*
4,1,14,0.334644,0.085355,0.385355,0.034644,0.400000,-0.000711,0.400000,-0.050000,0.385355,-0.085355,0.350000,-0.100000,-0.350000,-0.100000,-0.385355,-0.085355,-0.400000,-0.050000,-0.400000,0.050000,-0.385355,0.085355,-0.350000,0.100000,0.299289,0.100000,0.334644,0.085355,0.334644,0.085355,$1*%
%AMFreePoly1*
4,1,14,0.385355,0.085355,0.400000,0.050000,0.400000,0.000711,0.385355,-0.034644,0.334644,-0.085355,0.299289,-0.100000,-0.350000,-0.100000,-0.385355,-0.085355,-0.400000,-0.050000,-0.400000,0.050000,-0.385355,0.085355,-0.350000,0.100000,0.350000,0.100000,0.385355,0.085355,0.385355,0.085355,$1*%
%AMFreePoly2*
4,1,14,0.085355,0.385355,0.100000,0.350000,0.100000,-0.350000,0.085355,-0.385355,0.050000,-0.400000,-0.050000,-0.400000,-0.085355,-0.385355,-0.100000,-0.350000,-0.100000,0.299289,-0.085355,0.334644,-0.034644,0.385355,0.000711,0.400000,0.050000,0.400000,0.085355,0.385355,0.085355,0.385355,$1*%
%AMFreePoly3*
4,1,14,0.034644,0.385355,0.085355,0.334644,0.100000,0.299289,0.100000,-0.350000,0.085355,-0.385355,0.050000,-0.400000,-0.050000,-0.400000,-0.085355,-0.385355,-0.100000,-0.350000,-0.100000,0.350000,-0.085355,0.385355,-0.050000,0.400000,-0.000711,0.400000,0.034644,0.385355,0.034644,0.385355,$1*%
%AMFreePoly4*
4,1,14,0.385355,0.085355,0.400000,0.050000,0.400000,-0.050000,0.385355,-0.085355,0.350000,-0.100000,-0.299289,-0.100000,-0.334644,-0.085355,-0.385355,-0.034644,-0.400000,0.000711,-0.400000,0.050000,-0.385355,0.085355,-0.350000,0.100000,0.350000,0.100000,0.385355,0.085355,0.385355,0.085355,$1*%
%AMFreePoly5*
4,1,14,0.385355,0.085355,0.400000,0.050000,0.400000,-0.050000,0.385355,-0.085355,0.350000,-0.100000,-0.350000,-0.100000,-0.385355,-0.085355,-0.400000,-0.050000,-0.400000,-0.000711,-0.385355,0.034644,-0.334644,0.085355,-0.299289,0.100000,0.350000,0.100000,0.385355,0.085355,0.385355,0.085355,$1*%
%AMFreePoly6*
4,1,14,0.085355,0.385355,0.100000,0.350000,0.100000,-0.299289,0.085355,-0.334644,0.034644,-0.385355,-0.000711,-0.400000,-0.050000,-0.400000,-0.085355,-0.385355,-0.100000,-0.350000,-0.100000,0.350000,-0.085355,0.385355,-0.050000,0.400000,0.050000,0.400000,0.085355,0.385355,0.085355,0.385355,$1*%
%AMFreePoly7*
4,1,14,0.085355,0.385355,0.100000,0.350000,0.100000,-0.350000,0.085355,-0.385355,0.050000,-0.400000,0.000711,-0.400000,-0.034644,-0.385355,-0.085355,-0.334644,-0.100000,-0.299289,-0.100000,0.350000,-0.085355,0.385355,-0.050000,0.400000,0.050000,0.400000,0.085355,0.385355,0.085355,0.385355,$1*%
G04 Aperture macros list end*
%ADD10C,0.010000*%
%ADD11R,0.808000X0.808000*%
%ADD12Outline8P,-7.000000X1.050000X-6.300000X1.750000X6.300000X1.750000X7.000000X1.050000X7.000000X-1.050000X6.300000X-1.750000X-6.300000X-1.750000X-7.000000X-1.050000X0.000000*%
%ADD13R,0.650000X0.450000*%
%ADD14RoundRect,0.200000X0.275000X-0.200000X0.275000X0.200000X-0.275000X0.200000X-0.275000X-0.200000X0*%
%ADD15RoundRect,0.225000X0.250000X-0.225000X0.250000X0.225000X-0.250000X0.225000X-0.250000X-0.225000X0*%
%ADD16RoundRect,0.172500X0.172500X0.172500X-0.172500X0.172500X-0.172500X-0.172500X0.172500X-0.172500X0*%
%ADD17FreePoly0,180.000000*%
%ADD18RoundRect,0.050000X0.350000X0.050000X-0.350000X0.050000X-0.350000X-0.050000X0.350000X-0.050000X0*%
%ADD19FreePoly1,180.000000*%
%ADD20FreePoly2,180.000000*%
%ADD21RoundRect,0.050000X0.050000X0.350000X-0.050000X0.350000X-0.050000X-0.350000X0.050000X-0.350000X0*%
%ADD22FreePoly3,180.000000*%
%ADD23FreePoly4,180.000000*%
%ADD24FreePoly5,180.000000*%
%ADD25FreePoly6,180.000000*%
%ADD26FreePoly7,180.000000*%
%ADD27RoundRect,0.150000X-0.587500X-0.150000X0.587500X-0.150000X0.587500X0.150000X-0.587500X0.150000X0*%
%ADD28O,1.000000X1.000000*%
%ADD29RoundRect,0.013200X-0.096800X0.336800X-0.096800X-0.336800X0.096800X-0.336800X0.096800X0.336800X0*%
%ADD30RoundRect,0.013200X0.336800X0.096800X-0.336800X0.096800X-0.336800X-0.096800X0.336800X-0.096800X0*%
%ADD31RoundRect,0.013200X0.096800X-0.336800X0.096800X0.336800X-0.096800X0.336800X-0.096800X-0.336800X0*%
%ADD32RoundRect,0.013200X-0.336800X-0.096800X0.336800X-0.096800X0.336800X0.096800X-0.336800X0.096800X0*%
%ADD33RoundRect,0.013200X-0.341800X-0.096800X0.341800X-0.096800X0.341800X0.096800X-0.341800X0.096800X0*%
%ADD34RoundRect,0.225000X0.225000X0.250000X-0.225000X0.250000X-0.225000X-0.250000X0.225000X-0.250000X0*%
%ADD35RoundRect,0.225000X-0.250000X0.225000X-0.250000X-0.225000X0.250000X-0.225000X0.250000X0.225000X0*%
G04 APERTURE END LIST*
%TO.C,S2*%
D10*
X172321000Y-110140000D02*
X172821000Y-110140000D01*
X172821000Y-110840000D01*
X172321000Y-110840000D01*
X172321000Y-111040000D01*
X172121000Y-111040000D01*
X172121000Y-109940000D01*
X172321000Y-109940000D01*
X172321000Y-110140000D01*
G36*
X172321000Y-110140000D02*
G01*
X172821000Y-110140000D01*
X172821000Y-110840000D01*
X172321000Y-110840000D01*
X172321000Y-111040000D01*
X172121000Y-111040000D01*
X172121000Y-109940000D01*
X172321000Y-109940000D01*
X172321000Y-110140000D01*
G37*
X172321000Y-113640000D02*
X172821000Y-113640000D01*
X172821000Y-114340000D01*
X172321000Y-114340000D01*
X172321000Y-114540000D01*
X172121000Y-114540000D01*
X172121000Y-113440000D01*
X172321000Y-113440000D01*
X172321000Y-113640000D01*
G36*
X172321000Y-113640000D02*
G01*
X172821000Y-113640000D01*
X172821000Y-114340000D01*
X172321000Y-114340000D01*
X172321000Y-114540000D01*
X172121000Y-114540000D01*
X172121000Y-113440000D01*
X172321000Y-113440000D01*
X172321000Y-113640000D01*
G37*
X177271000Y-111040000D02*
X177071000Y-111040000D01*
X177071000Y-110840000D01*
X176571000Y-110840000D01*
X176571000Y-110140000D01*
X177071000Y-110140000D01*
X177071000Y-109940000D01*
X177271000Y-109940000D01*
X177271000Y-111040000D01*
G36*
X177271000Y-111040000D02*
G01*
X177071000Y-111040000D01*
X177071000Y-110840000D01*
X176571000Y-110840000D01*
X176571000Y-110140000D01*
X177071000Y-110140000D01*
X177071000Y-109940000D01*
X177271000Y-109940000D01*
X177271000Y-111040000D01*
G37*
X177271000Y-114540000D02*
X177071000Y-114540000D01*
X177071000Y-114340000D01*
X176571000Y-114340000D01*
X176571000Y-113640000D01*
X177071000Y-113640000D01*
X177071000Y-113440000D01*
X177271000Y-113440000D01*
X177271000Y-114540000D01*
G36*
X177271000Y-114540000D02*
G01*
X177071000Y-114540000D01*
X177071000Y-114340000D01*
X176571000Y-114340000D01*
X176571000Y-113640000D01*
X177071000Y-113640000D01*
X177071000Y-113440000D01*
X177271000Y-113440000D01*
X177271000Y-114540000D01*
G37*
%TO.C,S3*%
X158209000Y-110140000D02*
X158709000Y-110140000D01*
X158709000Y-110840000D01*
X158209000Y-110840000D01*
X158209000Y-111040000D01*
X158009000Y-111040000D01*
X158009000Y-109940000D01*
X158209000Y-109940000D01*
X158209000Y-110140000D01*
G36*
X158209000Y-110140000D02*
G01*
X158709000Y-110140000D01*
X158709000Y-110840000D01*
X158209000Y-110840000D01*
X158209000Y-111040000D01*
X158009000Y-111040000D01*
X158009000Y-109940000D01*
X158209000Y-109940000D01*
X158209000Y-110140000D01*
G37*
X158209000Y-113640000D02*
X158709000Y-113640000D01*
X158709000Y-114340000D01*
X158209000Y-114340000D01*
X158209000Y-114540000D01*
X158009000Y-114540000D01*
X158009000Y-113440000D01*
X158209000Y-113440000D01*
X158209000Y-113640000D01*
G36*
X158209000Y-113640000D02*
G01*
X158709000Y-113640000D01*
X158709000Y-114340000D01*
X158209000Y-114340000D01*
X158209000Y-114540000D01*
X158009000Y-114540000D01*
X158009000Y-113440000D01*
X158209000Y-113440000D01*
X158209000Y-113640000D01*
G37*
X163159000Y-111040000D02*
X162959000Y-111040000D01*
X162959000Y-110840000D01*
X162459000Y-110840000D01*
X162459000Y-110140000D01*
X162959000Y-110140000D01*
X162959000Y-109940000D01*
X163159000Y-109940000D01*
X163159000Y-111040000D01*
G36*
X163159000Y-111040000D02*
G01*
X162959000Y-111040000D01*
X162959000Y-110840000D01*
X162459000Y-110840000D01*
X162459000Y-110140000D01*
X162959000Y-110140000D01*
X162959000Y-109940000D01*
X163159000Y-109940000D01*
X163159000Y-111040000D01*
G37*
X163159000Y-114540000D02*
X162959000Y-114540000D01*
X162959000Y-114340000D01*
X162459000Y-114340000D01*
X162459000Y-113640000D01*
X162959000Y-113640000D01*
X162959000Y-113440000D01*
X163159000Y-113440000D01*
X163159000Y-114540000D01*
G36*
X163159000Y-114540000D02*
G01*
X162959000Y-114540000D01*
X162959000Y-114340000D01*
X162459000Y-114340000D01*
X162459000Y-113640000D01*
X162959000Y-113640000D01*
X162959000Y-113440000D01*
X163159000Y-113440000D01*
X163159000Y-114540000D01*
G37*
%TO.C,S4*%
X165265000Y-115474000D02*
X165765000Y-115474000D01*
X165765000Y-116174000D01*
X165265000Y-116174000D01*
X165265000Y-116374000D01*
X165065000Y-116374000D01*
X165065000Y-115274000D01*
X165265000Y-115274000D01*
X165265000Y-115474000D01*
G36*
X165265000Y-115474000D02*
G01*
X165765000Y-115474000D01*
X165765000Y-116174000D01*
X165265000Y-116174000D01*
X165265000Y-116374000D01*
X165065000Y-116374000D01*
X165065000Y-115274000D01*
X165265000Y-115274000D01*
X165265000Y-115474000D01*
G37*
X165265000Y-118974000D02*
X165765000Y-118974000D01*
X165765000Y-119674000D01*
X165265000Y-119674000D01*
X165265000Y-119874000D01*
X165065000Y-119874000D01*
X165065000Y-118774000D01*
X165265000Y-118774000D01*
X165265000Y-118974000D01*
G36*
X165265000Y-118974000D02*
G01*
X165765000Y-118974000D01*
X165765000Y-119674000D01*
X165265000Y-119674000D01*
X165265000Y-119874000D01*
X165065000Y-119874000D01*
X165065000Y-118774000D01*
X165265000Y-118774000D01*
X165265000Y-118974000D01*
G37*
X170215000Y-116374000D02*
X170015000Y-116374000D01*
X170015000Y-116174000D01*
X169515000Y-116174000D01*
X169515000Y-115474000D01*
X170015000Y-115474000D01*
X170015000Y-115274000D01*
X170215000Y-115274000D01*
X170215000Y-116374000D01*
G36*
X170215000Y-116374000D02*
G01*
X170015000Y-116374000D01*
X170015000Y-116174000D01*
X169515000Y-116174000D01*
X169515000Y-115474000D01*
X170015000Y-115474000D01*
X170015000Y-115274000D01*
X170215000Y-115274000D01*
X170215000Y-116374000D01*
G37*
X170215000Y-119874000D02*
X170015000Y-119874000D01*
X170015000Y-119674000D01*
X169515000Y-119674000D01*
X169515000Y-118974000D01*
X170015000Y-118974000D01*
X170015000Y-118774000D01*
X170215000Y-118774000D01*
X170215000Y-119874000D01*
G36*
X170215000Y-119874000D02*
G01*
X170015000Y-119874000D01*
X170015000Y-119674000D01*
X169515000Y-119674000D01*
X169515000Y-118974000D01*
X170015000Y-118974000D01*
X170015000Y-118774000D01*
X170215000Y-118774000D01*
X170215000Y-119874000D01*
G37*
%TO.C,S1*%
X165265000Y-104580000D02*
X165765000Y-104580000D01*
X165765000Y-105280000D01*
X165265000Y-105280000D01*
X165265000Y-105480000D01*
X165065000Y-105480000D01*
X165065000Y-104380000D01*
X165265000Y-104380000D01*
X165265000Y-104580000D01*
G36*
X165265000Y-104580000D02*
G01*
X165765000Y-104580000D01*
X165765000Y-105280000D01*
X165265000Y-105280000D01*
X165265000Y-105480000D01*
X165065000Y-105480000D01*
X165065000Y-104380000D01*
X165265000Y-104380000D01*
X165265000Y-104580000D01*
G37*
X165265000Y-108080000D02*
X165765000Y-108080000D01*
X165765000Y-108780000D01*
X165265000Y-108780000D01*
X165265000Y-108980000D01*
X165065000Y-108980000D01*
X165065000Y-107880000D01*
X165265000Y-107880000D01*
X165265000Y-108080000D01*
G36*
X165265000Y-108080000D02*
G01*
X165765000Y-108080000D01*
X165765000Y-108780000D01*
X165265000Y-108780000D01*
X165265000Y-108980000D01*
X165065000Y-108980000D01*
X165065000Y-107880000D01*
X165265000Y-107880000D01*
X165265000Y-108080000D01*
G37*
X170215000Y-105480000D02*
X170015000Y-105480000D01*
X170015000Y-105280000D01*
X169515000Y-105280000D01*
X169515000Y-104580000D01*
X170015000Y-104580000D01*
X170015000Y-104380000D01*
X170215000Y-104380000D01*
X170215000Y-105480000D01*
G36*
X170215000Y-105480000D02*
G01*
X170015000Y-105480000D01*
X170015000Y-105280000D01*
X169515000Y-105280000D01*
X169515000Y-104580000D01*
X170015000Y-104580000D01*
X170015000Y-104380000D01*
X170215000Y-104380000D01*
X170215000Y-105480000D01*
G37*
X170215000Y-108980000D02*
X170015000Y-108980000D01*
X170015000Y-108780000D01*
X169515000Y-108780000D01*
X169515000Y-108080000D01*
X170015000Y-108080000D01*
X170015000Y-107880000D01*
X170215000Y-107880000D01*
X170215000Y-108980000D01*
G36*
X170215000Y-108980000D02*
G01*
X170015000Y-108980000D01*
X170015000Y-108780000D01*
X169515000Y-108780000D01*
X169515000Y-108080000D01*
X170015000Y-108080000D01*
X170015000Y-107880000D01*
X170215000Y-107880000D01*
X170215000Y-108980000D01*
G37*
%TD*%
D11*
%TO.C,ANT1*%
X123285000Y-95900000D03*
%TD*%
D12*
%TO.C,BT1*%
X170180000Y-77978000D03*
X170180000Y-91208000D03*
%TD*%
D13*
%TO.C,D18*%
X138156000Y-90678000D03*
X138156000Y-91928000D03*
X137306000Y-90678000D03*
X137306000Y-91928000D03*
%TD*%
%TO.C,D37*%
X144718000Y-100584000D03*
X144718000Y-101834000D03*
X143868000Y-100584000D03*
X143868000Y-101834000D03*
%TD*%
%TO.C,D25*%
X138156000Y-93980000D03*
X138156000Y-95230000D03*
X137306000Y-93980000D03*
X137306000Y-95230000D03*
%TD*%
%TO.C,D34*%
X131536000Y-97282000D03*
X131536000Y-98532000D03*
X130686000Y-97282000D03*
X130686000Y-98532000D03*
%TD*%
D14*
%TO.C,R4*%
X171704000Y-101218000D03*
X171704000Y-99568000D03*
%TD*%
D13*
%TO.C,D42*%
X128270000Y-100556000D03*
X128270000Y-101806000D03*
X127420000Y-100556000D03*
X127420000Y-101806000D03*
%TD*%
%TO.C,D22*%
X147916000Y-93980000D03*
X147916000Y-95230000D03*
X147066000Y-93980000D03*
X147066000Y-95230000D03*
%TD*%
%TO.C,D8*%
X147916000Y-87376000D03*
X147916000Y-88626000D03*
X147066000Y-87376000D03*
X147066000Y-88626000D03*
%TD*%
%TO.C,D19*%
X134874000Y-90678000D03*
X134874000Y-91928000D03*
X134024000Y-90678000D03*
X134024000Y-91928000D03*
%TD*%
%TO.C,D13*%
X131578000Y-87376000D03*
X131578000Y-88626000D03*
X130728000Y-87376000D03*
X130728000Y-88626000D03*
%TD*%
D15*
%TO.C,C2*%
X153670000Y-85116000D03*
X153670000Y-83566000D03*
%TD*%
D13*
%TO.C,D33*%
X134832000Y-97282000D03*
X134832000Y-98532000D03*
X133982000Y-97282000D03*
X133982000Y-98532000D03*
%TD*%
%TO.C,D41*%
X131578000Y-100584000D03*
X131578000Y-101834000D03*
X130728000Y-100584000D03*
X130728000Y-101834000D03*
%TD*%
%TO.C,D21*%
X128270000Y-90650000D03*
X128270000Y-91900000D03*
X127420000Y-90650000D03*
X127420000Y-91900000D03*
%TD*%
%TO.C,D15*%
X147916000Y-90678000D03*
X147916000Y-91928000D03*
X147066000Y-90678000D03*
X147066000Y-91928000D03*
%TD*%
%TO.C,D3*%
X141416000Y-84094000D03*
X141416000Y-85344000D03*
X140566000Y-84094000D03*
X140566000Y-85344000D03*
%TD*%
D16*
%TO.C,U1*%
X155326800Y-100524200D03*
X155326800Y-99674200D03*
X154476800Y-100524200D03*
X154476800Y-99674200D03*
D17*
X156351800Y-100899200D03*
D18*
X156351800Y-100499200D03*
X156351800Y-100099200D03*
X156351800Y-99699200D03*
D19*
X156351800Y-99299200D03*
D20*
X155701800Y-98649200D03*
D21*
X155301800Y-98649200D03*
X154901800Y-98649200D03*
X154501800Y-98649200D03*
D22*
X154101800Y-98649200D03*
D23*
X153451800Y-99299200D03*
D18*
X153451800Y-99699200D03*
X153451800Y-100099200D03*
X153451800Y-100499200D03*
D24*
X153451800Y-100899200D03*
D25*
X154101800Y-101549200D03*
D21*
X154501800Y-101549200D03*
X154901800Y-101549200D03*
X155301800Y-101549200D03*
D26*
X155701800Y-101549200D03*
%TD*%
D13*
%TO.C,D39*%
X138156000Y-100584000D03*
X138156000Y-101834000D03*
X137306000Y-100584000D03*
X137306000Y-101834000D03*
%TD*%
D27*
%TO.C,Q1*%
X152146000Y-77470000D03*
X152146000Y-79370000D03*
X154021000Y-78420000D03*
%TD*%
D13*
%TO.C,D31*%
X141374000Y-97302000D03*
X141374000Y-98552000D03*
X140524000Y-97302000D03*
X140524000Y-98552000D03*
%TD*%
%TO.C,D7*%
X128270000Y-84074000D03*
X128270000Y-85324000D03*
X127420000Y-84074000D03*
X127420000Y-85324000D03*
%TD*%
%TO.C,D11*%
X138156000Y-87376000D03*
X138156000Y-88626000D03*
X137306000Y-87376000D03*
X137306000Y-88626000D03*
%TD*%
D28*
%TO.C,J1*%
X155214000Y-120376000D03*
%TD*%
D13*
%TO.C,D17*%
X141416000Y-90698000D03*
X141416000Y-91948000D03*
X140566000Y-90698000D03*
X140566000Y-91948000D03*
%TD*%
%TO.C,D10*%
X141416000Y-87396000D03*
X141416000Y-88646000D03*
X140566000Y-87396000D03*
X140566000Y-88646000D03*
%TD*%
%TO.C,D40*%
X134874000Y-100584000D03*
X134874000Y-101834000D03*
X134024000Y-100584000D03*
X134024000Y-101834000D03*
%TD*%
D14*
%TO.C,R3*%
X161798000Y-101218000D03*
X161798000Y-99568000D03*
%TD*%
D13*
%TO.C,D30*%
X144676000Y-97282000D03*
X144676000Y-98532000D03*
X143826000Y-97282000D03*
X143826000Y-98532000D03*
%TD*%
%TO.C,D23*%
X144718000Y-93980000D03*
X144718000Y-95230000D03*
X143868000Y-93980000D03*
X143868000Y-95230000D03*
%TD*%
D29*
%TO.C,U2*%
X126500000Y-106680000D03*
D30*
X127195000Y-106875000D03*
X127195000Y-107375000D03*
X127195000Y-107875000D03*
D31*
X126500000Y-108070000D03*
D32*
X125805000Y-107875000D03*
D33*
X125805000Y-107375000D03*
X125805000Y-106875000D03*
%TD*%
D13*
%TO.C,D20*%
X131578000Y-90678000D03*
X131578000Y-91928000D03*
X130728000Y-90678000D03*
X130728000Y-91928000D03*
%TD*%
%TO.C,D6*%
X131578000Y-84074000D03*
X131578000Y-85324000D03*
X130728000Y-84074000D03*
X130728000Y-85324000D03*
%TD*%
D14*
%TO.C,R1*%
X165608000Y-101218000D03*
X165608000Y-99568000D03*
%TD*%
D13*
%TO.C,D35*%
X128228000Y-97254000D03*
X128228000Y-98504000D03*
X127378000Y-97254000D03*
X127378000Y-98504000D03*
%TD*%
%TO.C,D24*%
X141416000Y-94000000D03*
X141416000Y-95250000D03*
X140566000Y-94000000D03*
X140566000Y-95250000D03*
%TD*%
%TO.C,D9*%
X144718000Y-87376000D03*
X144718000Y-88626000D03*
X143868000Y-87376000D03*
X143868000Y-88626000D03*
%TD*%
%TO.C,D28*%
X128270000Y-93952000D03*
X128270000Y-95202000D03*
X127420000Y-93952000D03*
X127420000Y-95202000D03*
%TD*%
%TO.C,D12*%
X134874000Y-87376000D03*
X134874000Y-88626000D03*
X134024000Y-87376000D03*
X134024000Y-88626000D03*
%TD*%
D14*
%TO.C,R2*%
X175768000Y-101218000D03*
X175768000Y-99568000D03*
%TD*%
D13*
%TO.C,D4*%
X138156000Y-84074000D03*
X138156000Y-85324000D03*
X137306000Y-84074000D03*
X137306000Y-85324000D03*
%TD*%
%TO.C,D26*%
X134874000Y-93980000D03*
X134874000Y-95230000D03*
X134024000Y-93980000D03*
X134024000Y-95230000D03*
%TD*%
%TO.C,D32*%
X138114000Y-97282000D03*
X138114000Y-98532000D03*
X137264000Y-97282000D03*
X137264000Y-98532000D03*
%TD*%
%TO.C,D38*%
X141416000Y-100604000D03*
X141416000Y-101854000D03*
X140566000Y-100604000D03*
X140566000Y-101854000D03*
%TD*%
D34*
%TO.C,C3*%
X125717000Y-110998000D03*
X127267000Y-110998000D03*
%TD*%
D13*
%TO.C,D5*%
X134874000Y-84074000D03*
X134874000Y-85324000D03*
X134024000Y-84074000D03*
X134024000Y-85324000D03*
%TD*%
%TO.C,D36*%
X147916000Y-100584000D03*
X147916000Y-101834000D03*
X147066000Y-100584000D03*
X147066000Y-101834000D03*
%TD*%
%TO.C,D16*%
X144718000Y-90678000D03*
X144718000Y-91928000D03*
X143868000Y-90678000D03*
X143868000Y-91928000D03*
%TD*%
%TO.C,D29*%
X147874000Y-97282000D03*
X147874000Y-98532000D03*
X147024000Y-97282000D03*
X147024000Y-98532000D03*
%TD*%
%TO.C,D14*%
X128270000Y-87348000D03*
X128270000Y-88598000D03*
X127420000Y-87348000D03*
X127420000Y-88598000D03*
%TD*%
%TO.C,D2*%
X144718000Y-84074000D03*
X144718000Y-85324000D03*
X143868000Y-84074000D03*
X143868000Y-85324000D03*
%TD*%
%TO.C,D1*%
X147916000Y-84074000D03*
X147916000Y-85324000D03*
X147066000Y-84074000D03*
X147066000Y-85324000D03*
%TD*%
D35*
%TO.C,C1*%
X148590000Y-77470000D03*
X148590000Y-79020000D03*
%TD*%
D13*
%TO.C,D27*%
X131578000Y-93980000D03*
X131578000Y-95230000D03*
X130728000Y-93980000D03*
X130728000Y-95230000D03*
%TD*%
M02*
